<svg class="copy-icon" xmlns="http://www.w3.org/2000/svg" viewBox="0 0 24 24">
  <path d="M17.5,21.5H5.5c-1.4,0-2.5-1.1-2.5-2.5V6.5c0-1.4,1.1-2.5,2.5-2.5h8.8c0.3,0,0.5-0.2,0.5-0.5S14.6,3,14.3,3H5.5C3.6,3,2,4.6,2,6.5v12.5C2,19.4,3.6,21,5.5,21.5h12c1.4,0,2.5-1.1,2.5-2.5S18.9,21.5,17.5,21.5z"/>
  <path d="M19.5,3H15c-0.3,0-0.5,0.2-0.5,0.5S14.7,4,15,4h4.5c1.4,0,2.5,1.1,2.5,2.5v12.5c0,1.4-1.1,2.5-2.5,2.5h-12c-1.4,0-2.5-1.1-2.5-2.5V6.5c0-1.4,1.1-2.5,2.5-2.5h4.5c0.3,0,0.5-0.2,0.5-0.5S15.3,3,15,3H5.5C4,3,3,4,3,5.5v12.5C3,20,4,21,5.5,21.5h12c1.4,0,2.5-1.1,2.5-2.5V6.5C22,4.6,20.4,3,19.5,3z"/>
</svg>